<svg width="512" height="512" version="1.0" viewBox="0 0 1632 1632" xmlns="http://www.w3.org/2000/svg">
  <g transform="translate(0 1632) scale(.1 -.1)" fill="inherit">
    <path d="m8065 14510c-278-30-530-240-617-514-28-87-35-269-14-366 17-80 66-193 116-265 72-104 201-207 320-256l65-26 3-3261 2-3260-52-18c-29-9-79-30-112-46-32-16-60-28-62-26s-305 304-673 671l-669 669 23 52c93 210 77 464-42 669-48 83-172 204-258 254-405 236-923 37-1064-408-78-244-21-514 148-704 87-98 197-170 331-215 47-16 99-23 185-27 134-6 215 8 318 54l59 26 1342-1342-33-69c-17-39-37-90-44-114l-13-43h-952-953l-23 58c-54 132-182 279-309 355-128 77-303 113-452 94-390-51-662-376-643-767 16-302 212-554 508-655 100-34 279-39 390-11 223 55 395 199 492 409l43 92 948-2 948-3 28-83c16-45 36-93 45-107 9-13 16-30 16-37s-301-314-668-681l-669-669-41 21c-130 66-340 84-495 43-257-70-458-277-522-537-21-88-22-258-1-337 97-366 417-592 788-556 248 24 465 174 580 401 91 181 94 458 8 628l-22 42 1345 1345 58-29c32-17 82-38 111-48l53-18 3-934 2-935-47-17c-194-72-357-243-430-452-26-74-28-92-28-230 0-137 3-157 27-226 139-394 551-595 941-460 221 77 394 265 458 498 31 110 31 268 0 377-44 160-143 305-268 397-52 39-170 101-213 112-20 5-20 6-20 935v930l63 21c34 12 88 34 119 49l57 28 1341-1341-25-60c-43-107-58-194-53-323 8-199 76-349 220-488 139-134 279-194 470-202 187-7 334 36 475 141 121 90 230 255 270 407 20 77 22 260 4 335-65 267-263 473-527 546-150 41-336 28-479-36l-53-23-669 669c-367 368-669 671-671 673s10 30 26 62c16 33 38 85 48 117l18 57 948-2 949-3 28-65c83-197 244-347 449-417 60-20 102-27 192-30 147-6 235 12 355 71 255 127 407 369 407 651 0 123-20 214-72 320-93 191-273 338-480 392-99 25-265 23-364-5-202-58-368-191-459-370-26-51-47-100-47-108 0-12-130-14-954-14h-954l-17 52c-9 28-31 80-48 116l-31 63 1342 1342 59-25c198-86 462-74 642 29 182 105 303 262 357 464 20 78 23 250 5 332-53 242-241 454-471 532-481 163-971-182-970-684 0-113 19-208 56-292l27-61-1340-1340-74 34c-41 19-95 41-121 48l-48 13v3261 3261l48 17c175 63 343 228 416 408 37 91 60 228 52 320-32 421-394 724-811 680zm211-445c64-29 122-86 154-150 33-69 34-189 2-255-36-73-78-117-145-149-75-36-131-44-200-30-95 20-173 81-219 169-33 65-33 205 0 268 83 156 253 217 408 147zm-2476-5606c62-14 142-69 179-123 112-163 51-379-130-461-55-24-71-27-138-23-94 6-161 37-219 103-50 57-73 121-73 208-1 99 51 201 128 248 88 54 163 69 253 48zm4925-23c106-52 168-153 169-276 1-89-21-145-82-212-65-71-120-93-227-93-101 0-143 16-214 80-90 82-120 249-64 359 21 41 92 115 127 133 96 50 199 53 291 9zm-2484-2280c37-8 90-27 119-41 68-35 150-117 185-185 34-68 58-179 50-239-9-62-41-159-65-196-41-62-115-127-188-162-216-107-479-10-586 217-29 60-31 73-31 175 0 106 1 113 36 186 61 128 172 216 309 245 73 16 93 16 171 0zm-3384-152c109-53 179-173 170-295-15-221-248-357-445-258-257 128-214 509 65 579 58 14 151 3 210-26zm6866 3c63-29 118-81 149-140 30-59 36-177 13-248-26-77-110-159-188-183-115-36-223-15-306 60-71 64-104 135-105 228-1 65 3 81 34 142 78 152 248 212 403 141zm-5875-2427c74-33 119-76 154-147 132-268-148-543-419-412-115 56-188 207-161 334 14 67 38 112 85 158 92 93 224 118 341 67zm4816 15c143-37 231-152 231-300-1-269-320-408-518-226-123 114-132 306-20 431 86 95 186 126 307 95zm-2386-985c74-33 119-76 154-148 59-118 41-243-48-341-89-99-207-128-339-83-70 23-157 112-180 183-58 173 39 356 215 406 56 16 139 9 198-17z" />
  </g>
</svg>